<svg width="1280" height="489" viewBox="0 0 1280 489" fill="none" xmlns="http://www.w3.org/2000/svg">
<path d="M1280 0H0V489H1280V0Z" fill="#FEFCFB"/>
<path d="M446.526 315.339H318.217L284.02 280.93L337.641 227H290.298L234 283.656L298.953 349H480L446.526 315.339Z" fill="#FF284C"/>
<path d="M486 140H274L303.881 170.067L413.736 170.116L399.985 183.953H333.448L303.518 214.066H370.055L308.799 275.703L329.965 297L486 140Z" fill="black"/>
<path d="M386.351 302L477 211H434.636L344 302H386.351Z" fill="black"/>
<path d="M601.962 296H573.025C567.693 296 563.356 294.335 560.016 291.005C556.676 287.676 555.004 283.358 555 278.054V221.946C555 216.637 556.672 212.319 560.016 208.991C563.361 205.664 567.697 204 573.025 204H601.962C607.292 204 611.628 205.664 614.971 208.991C618.313 212.319 619.985 216.637 619.987 221.946V236.604H601.709V225.478C601.709 222.618 600.265 221.187 597.393 221.187H577.6C574.723 221.187 573.284 222.617 573.284 225.478V274.513C573.284 277.382 574.723 278.814 577.6 278.81H597.393C600.265 278.81 601.709 277.382 601.709 274.513V263.396H620V278.054C620 283.361 618.328 287.678 614.984 291.005C611.639 294.333 607.299 295.998 601.962 296Z" fill="black"/>
<path d="M674.682 296H656.315V264.187L628 204H648.157L665.497 243.353L682.846 204H703L674.682 264.187V296Z" fill="black"/>
<path d="M713 204H759.033C764.343 204 768.663 205.682 771.993 209.047C775.323 212.411 776.989 216.778 776.991 222.146V235.18C776.991 241.142 774.336 245.743 769.026 248.981C775.009 251.962 778 256.561 778 262.779V277.857C778 283.221 776.335 287.586 773.005 290.953C769.675 294.32 765.354 296.002 760.041 296H713V204ZM731.211 240.801H754.487C756.173 240.801 757.31 240.524 757.898 239.968C758.486 239.413 758.783 238.242 758.787 236.457V225.468C758.787 222.571 757.348 221.123 754.487 221.123H731.211V240.801ZM731.211 278.877H755.49C758.36 278.877 759.794 277.428 759.789 274.532V261.244C759.789 259.543 759.369 258.436 758.528 257.925C757.678 257.415 756.165 257.154 753.973 257.154H731.211V278.877Z" fill="black"/>
<path d="M796 204H856V221.378H814.342V240.292H848.106V257.67H814.342V278.622H856V296H796V204Z" fill="black"/>
<path d="M939 296H919.151L904.294 261.884H889.441V296H871V204H917.995C923.377 204 927.755 205.682 931.127 209.047C934.499 212.411 936.183 216.778 936.181 222.146V243.738C936.181 248.083 935.05 251.785 932.786 254.844C930.531 257.908 927.298 260.117 923.62 261.106L939 296ZM917.74 240.416V225.716C917.74 222.818 916.289 221.37 913.386 221.372H889.441V244.754H913.386C916.289 244.758 917.74 243.312 917.74 240.416Z" fill="black"/>
<path d="M954 296V204H1014V221.378H972.348V241.056H1006.11V258.434H972.348V296H954Z" fill="black"/>
<path d="M1028 296V204H1046V296H1028Z" fill="black"/>
</svg>
