<?xml version="1.0" encoding="utf-8"?>
<!-- Generator: Adobe Illustrator 19.2.1, SVG Export Plug-In . SVG Version: 6.00 Build 0)  -->
<svg version="1.1" id="layer" xmlns="http://www.w3.org/2000/svg" xmlns:xlink="http://www.w3.org/1999/xlink" x="0px" y="0px"
	 viewBox="0 0 652 652" style="enable-background:new 0 0 652 652;" xml:space="preserve">
<style type="text/css">
	.st0{fill:#D8A574;}
	.st1{fill:#D0CED1;}
	.st2{fill:url(#SVGID_1_);}
	.st3{fill:url(#SVGID_2_);}
	.st4{fill:url(#SVGID_3_);}
	.st5{fill:url(#SVGID_4_);}
</style>
<path class="st0" d="M261,343.2h8v38.9h-2.7l-22.6-23.6v22.9h-8v-38.9h2.6L261,366V343.2z M294.8,381.4v-38.2h26.3v7.1h-18.3v7.8
	h13.4v6.7h-13.4v9.7h19v7.1H294.8z M354.5,381.4v-31.2H342v-7.1H375v7.1h-12.6v31.2H354.5z M443.7,343.2h8.9l-15.6,38.9h-2.6
	l-10.9-24l-11,24h-2.6l-15.6-38.9h8.9l8.7,22.6l10.3-23.3h2.7l10.3,23.2L443.7,343.2z M472,362.3c-0.1-5.4,1.9-10.1,6-14.1
	c4.1-3.9,9-5.8,14.7-5.7c5.6-0.1,10.5,1.8,14.7,5.7c4.2,3.9,6.2,8.6,6.2,14.1c0.1,5.4-2,10.1-6.2,14.1c-4.1,3.9-9,5.8-14.7,5.7
	c-5.6,0.1-10.5-1.8-14.7-5.7C473.9,372.4,471.9,367.7,472,362.3z M505.4,362.3c0-3.6-1.2-6.6-3.6-9c-2.4-2.4-5.4-3.6-8.9-3.6
	c-3.6,0-6.6,1.2-9,3.5c-2.4,2.4-3.6,5.4-3.6,9c0,3.7,1.2,6.7,3.6,9c2.4,2.4,5.4,3.5,9,3.5c3.6,0,6.6-1.2,8.9-3.5
	C504.2,369,505.4,365.9,505.4,362.3z M570.3,381.4h-9l-10.1-13.5h-5.9v13.5h-8v-38.2H552c4.1,0,7.5,1.1,10.1,3.4s4,5.3,4,8.9
	c0,2.4-0.6,4.6-1.8,6.5c-1.2,1.9-2.9,3.4-5,4.4L570.3,381.4z M545.3,350.1V361h6.7c1.9,0,3.3-0.5,4.3-1.5c1.1-1,1.6-2.3,1.6-4
	c0-1.6-0.6-2.9-1.7-3.9c-1.1-1-2.5-1.5-4.3-1.5H545.3z M626.5,381.4h-9.7l-16.8-19.9v19.9h-8v-38.2h8v17.7l14.9-17.7h9.5l-15,18
	L626.5,381.4z"/>
<path class="st1" d="M236.9,326.1v-48.6h32.7v9h-22.5v12.2h18.5v9h-18.5v18.5H236.9z M299.1,326.1v-48.6h33.5v9h-23.3v9.9h17.1v8.5
	h-17.1v12.3h24.2v9H299.1z M406.2,326.1h-11.5l-12.9-17.2h-7.5v17.2h-10.2v-48.6h18.7c5.2,0,9.5,1.4,12.9,4.3
	c3.4,2.9,5.1,6.7,5.1,11.4c0,3-0.8,5.8-2.3,8.3c-1.5,2.4-3.6,4.3-6.4,5.6L406.2,326.1z M374.4,286.2v13.9h8.5c2.4,0,4.2-0.6,5.5-1.9
	c1.4-1.3,2-3,2-5.1c0-2.1-0.7-3.7-2.1-5c-1.4-1.3-3.2-1.9-5.4-1.9H374.4z M476.3,326.1h-11.5L452,308.9h-7.5v17.2h-10.2v-48.6H453
	c5.2,0,9.5,1.4,12.9,4.3c3.4,2.9,5.1,6.7,5.1,11.4c0,3-0.8,5.8-2.3,8.3c-1.5,2.4-3.6,4.3-6.4,5.6L476.3,326.1z M444.5,286.2v13.9
	h8.5c2.4,0,4.2-0.6,5.5-1.9c1.4-1.3,2-3,2-5.1c0-2.1-0.7-3.7-2.1-5c-1.4-1.3-3.2-1.9-5.4-1.9H444.5z M502.5,306v-28.5h10.2v29.3
	c0,3.5,1,6.2,3,8.2c2,1.9,4.7,2.9,7.9,2.9c3.3,0,6-1,7.9-2.9c2-2,3-4.7,3-8.2v-29.3h10.2V306c0,6.3-2,11.4-6,15.3
	c-4,3.8-9,5.7-15.2,5.7c-6.2,0-11.3-1.9-15.2-5.7C504.5,317.4,502.5,312.3,502.5,306z M623,276.6h3.3v49.5h-10.2v-25.9l-12.5,15.3
	h-3.3l-12.5-15.3v25.9h-10.2v-49.5h3.3l21,26.3L623,276.6z"/>
<linearGradient id="SVGID_1_" gradientUnits="userSpaceOnUse" x1="19.1473" y1="315.5332" x2="152.1785" y2="400.7062" gradientTransform="matrix(1 0 0 -1 0 652)">
	<stop  offset="4.584460e-002" style="stop-color:#C5C3C5"/>
	<stop  offset="0.3021" style="stop-color:#F2F2F2"/>
	<stop  offset="0.895" style="stop-color:#BEBBBE"/>
</linearGradient>
<path class="st2" d="M26.5,374.4l9.3,4.9l9.3-4.9V335l129.7-75.4l-20.8-11L45,312.1v-23.8l88-50.8l-16.2-8.8l-90.3,48.6V374.4z"/>
<linearGradient id="SVGID_2_" gradientUnits="userSpaceOnUse" x1="49.9088" y1="293.0505" x2="188.7778" y2="359.9361" gradientTransform="matrix(1 0 0 -1 0 652)">
	<stop  offset="0.197" style="stop-color:#CAA467"/>
	<stop  offset="0.6183" style="stop-color:#ECC77C"/>
	<stop  offset="0.9196" style="stop-color:#CCA362"/>
</linearGradient>
<path class="st3" d="M165.5,310.3v-22.9L63.5,345.3v23L165.5,310.3z"/>
<linearGradient id="SVGID_3_" gradientUnits="userSpaceOnUse" x1="-11.1554" y1="191.4551" x2="70.4534" y2="249.5514" gradientTransform="matrix(1 0 0 -1 0 652)">
	<stop  offset="0.197" style="stop-color:#CAA467"/>
	<stop  offset="0.6183" style="stop-color:#ECC77C"/>
	<stop  offset="0.9196" style="stop-color:#CCA362"/>
</linearGradient>
<path class="st4" d="M79.8,403.3l-20.8-11l106.6-62v23L79.8,403.3z"/>
<linearGradient id="SVGID_4_" gradientUnits="userSpaceOnUse" x1="-77.2532" y1="191.5242" x2="61.6154" y2="258.4098" gradientTransform="matrix(1 0 0 -1 0 652)">
	<stop  offset="0.197" style="stop-color:#CAA467"/>
	<stop  offset="0.6183" style="stop-color:#ECC77C"/>
	<stop  offset="0.9196" style="stop-color:#CCA362"/>
</linearGradient>
<path class="st5" d="M197.9,272.4l9.3,4.9v97.1L115.9,423l-18.5-10.2l91.3-49.5v-23.8v-22.9v-39.4L197.9,272.4z"/>
</svg>
